<svg xmlns="http://www.w3.org/2000/svg" xmlns:xlink="http://www.w3.org/1999/xlink" xmlns:lucid="lucid" width="1319.96" height="693.12"><g transform="translate(-39.80196324125163 -337.2952642242136)" lucid:page-tab-id="0_0"><path d="M0 0h1760v1360H0z" fill="#fff"/><path d="M1098.4 389.74c16.58 0 30 13.43 30 30v557.5c0 16.56-13.42 30-30 30H89.8c-16.57 0-30-13.44-30-30v-557.5c0-16.57 13.43-30 30-30z" stroke="#979ea8" stroke-width="5" fill-opacity="0"/><path d="M927.46 732.3a6 6 0 0 1 6-6h148a6 6 0 0 1 6 6v108a6 6 0 0 1-6 6h-148a6 6 0 0 1-6-6z" stroke="#5e5e5e" stroke-width="3" fill="#fff"/><use xlink:href="#a" transform="matrix(1,0,0,1,939.4614921067248,738.3068456969567) translate(50.74691358024691 38.77777777777778)"/><use xlink:href="#b" transform="matrix(1,0,0,1,939.4614921067248,738.3068456969567) translate(20.006172839506164 65.44444444444446)"/><path d="M412.24 590.9a6 6 0 0 1 6-6h148a6 6 0 0 1 6 6v108a6 6 0 0 1-6 6h-148a6 6 0 0 1-6-6z" stroke="#5e5e5e" stroke-width="3" fill="#fff"/><use xlink:href="#c" transform="matrix(1,0,0,1,424.2436405633366,596.8991565367348) translate(43.370370370370374 53.77777777777778)"/><path d="M81.46 442.8a6 6 0 0 1 6-6h148a6 6 0 0 1 6 6v148a6 6 0 0 1-6 6h-148a6 6 0 0 1-6-6z" stroke="#5e5e5e" stroke-width="3" fill="#fff"/><use xlink:href="#d" transform="matrix(1,0,0,1,86.45698153300728,441.7962735066618) translate(41.69753086419753 78.71527777777777)"/><path d="M927.46 435.96a6 6 0 0 1 6-6h148a6 6 0 0 1 6 6v108a6 6 0 0 1-6 6h-148a6 6 0 0 1-6-6z" stroke="#5e5e5e" stroke-width="3" fill="#fff"/><use xlink:href="#e" transform="matrix(1,0,0,1,939.4614921067248,441.96546172740193) translate(27.96913580246914 38.77777777777778)"/><use xlink:href="#b" transform="matrix(1,0,0,1,939.4614921067248,441.96546172740193) translate(20.006172839506164 65.44444444444446)"/><path d="M907.46 460.9H359.44" stroke="#5e5e5e" stroke-width="2" fill="none"/><path d="M922.73 460.9l-14.27 4.64v-9.27zM344.18 460.9l14.26-4.63v9.27z" stroke="#5e5e5e" stroke-width="2" fill="#5e5e5e"/><path d="M359.44 758.87h548.02" stroke="#5e5e5e" stroke-width="2" fill="none"/><path d="M344.18 758.87l14.26-4.64v9.27zM922.73 758.87l-14.27 4.63v-9.27z" stroke="#5e5e5e" stroke-width="2" fill="#5e5e5e"/><path d="M340.94 428.67v544.66" stroke="#5e5e5e" stroke-width="7" fill="none"/><path d="M340.94 410.9l4.64 14.27h-9.27zM340.94 991.1l-4.63-14.27h9.28z" stroke="#5e5e5e" stroke-width="7" fill="#5e5e5e"/><path d="M261.46 573.22h60.98" stroke="#5e5e5e" stroke-width="2" fill="none"/><path d="M246.2 573.22l14.26-4.64v9.27zM337.7 573.22l-14.26 4.63v-9.27z" stroke="#5e5e5e" stroke-width="2" fill="#5e5e5e"/><path d="M1179.76 435.96a6 6 0 0 1 6-6h148a6 6 0 0 1 6 6v108a6 6 0 0 1-6 6h-148a6 6 0 0 1-6-6z" stroke="#5e5e5e" stroke-width="3" fill="#fff"/><use xlink:href="#f" transform="matrix(1,0,0,1,1191.7629248589953,441.96546172740193) translate(27.96913580246914 53.77777777777778)"/><path d="M669.85 604.23a6 6 0 0 1 6-6h148a6 6 0 0 1 6 6v38.72a6 6 0 0 1-6 6h-148a6 6 0 0 1-6-6z" stroke="#5e5e5e" stroke-width="3" fill="#fff"/><use xlink:href="#g" transform="matrix(1,0,0,1,681.8525663350307,610.2281382407591) translate(2.469135802469168 17.597222222222218)"/><use xlink:href="#h" transform="matrix(1,0,0,1,681.8525663350307,610.2281382407591) translate(43.85185185185187 17.597222222222218)"/><use xlink:href="#i" transform="matrix(1,0,0,1,681.8525663350307,610.2281382407591) translate(93.1358024691358 17.597222222222218)"/><path d="M927.46 590.9a6 6 0 0 1 6-6h148a6 6 0 0 1 6 6v108a6 6 0 0 1-6 6h-148a6 6 0 0 1-6-6z" stroke="#5e5e5e" stroke-width="3" fill="#fff"/><use xlink:href="#j" transform="matrix(1,0,0,1,939.4614921067248,596.8991565367348) translate(27.25925925925926 26.77777777777778)"/><use xlink:href="#k" transform="matrix(1,0,0,1,939.4614921067248,596.8991565367348) translate(28.586419753086417 53.44444444444445)"/><use xlink:href="#b" transform="matrix(1,0,0,1,939.4614921067248,596.8991565367348) translate(20.006172839506164 80.11111111111111)"/><path d="M1179.76 659.02a6 6 0 0 1 6-6h148a6 6 0 0 1 6 6v108a6 6 0 0 1-6 6h-148a6 6 0 0 1-6-6z" stroke="#5e5e5e" stroke-width="3" fill="#fff"/><use xlink:href="#j" transform="matrix(1,0,0,1,1191.7629248589953,665.0192462501053) translate(27.25925925925926 38.77777777777778)"/><use xlink:href="#l" transform="matrix(1,0,0,1,1191.7629248589953,665.0192462501053) translate(28.586419753086417 65.44444444444446)"/><path d="M849.85 623.6h28.8v-.02h46.32" stroke="#5e5e5e" stroke-width="2" fill="none"/><path d="M834.6 623.6l14.25-4.65v9.27z" stroke="#5e5e5e" stroke-width="2" fill="#5e5e5e"/><path d="M925.96 624.57h-1.02v-2h1.02z" stroke="#5e5e5e" stroke-width=".05" fill="#5e5e5e"/><path d="M667.35 623.6h-46.3v-.02h-28.8" stroke="#5e5e5e" stroke-width="2" fill="none"/><path d="M668.35 624.6h-1.02v-2h1.02z" stroke="#5e5e5e" stroke-width=".05" fill="#5e5e5e"/><path d="M576.98 623.57l14.26-4.64v9.27z" stroke="#5e5e5e" stroke-width="2" fill="#5e5e5e"/><path d="M1107.46 644.9h28.3a6 6 0 0 1 6 6v25.83a6 6 0 0 0 6 6h12" stroke="#5e5e5e" stroke-width="2" fill="none"/><path d="M1092.2 644.9l14.26-4.64v9.27zM1175.03 682.73l-14.27 4.64v-9.27z" stroke="#5e5e5e" stroke-width="2" fill="#5e5e5e"/><path d="M1107.46 786.3h30.9a6 6 0 0 0 6-6V749a6 6 0 0 1 6-6h9.4" stroke="#5e5e5e" stroke-width="2" fill="none"/><path d="M1092.2 786.3l14.26-4.63v9.27zM1175.03 743l-14.27 4.62v-9.27z" stroke="#5e5e5e" stroke-width="2" fill="#5e5e5e"/><path d="M916.4 750.35a6 6 0 0 1 6-6h46a6 6 0 0 1 6 6v16.67a6 6 0 0 1-6 6h-46a6 6 0 0 1-6-6z" stroke="#000" stroke-opacity="0" stroke-width="3" fill="#fff" fill-opacity="0"/><use xlink:href="#m" transform="matrix(1,0,0,1,921.3846923509473,749.3525795834387) translate(8.962962962962969 11.854166666666663)"/><path d="M297.75 818.03a6 6 0 0 1-6-6v-228a6 6 0 0 1 6-6h48a6 6 0 0 1 6 6v228a6 6 0 0 1-6 6z" stroke="#000" stroke-opacity="0" stroke-width="3" fill="#fff" fill-opacity="0"/><use xlink:href="#n" transform="matrix(6.123233995736766e-17,-1,1,6.123233995736766e-17,296.7549256159691,813.0251975215418) translate(59.75308641975309 30.27777777777778)"/><use xlink:href="#o" transform="matrix(6.123233995736766e-17,-1,1,6.123233995736766e-17,296.7549256159691,813.0251975215418) translate(133.33333333333331 30.27777777777778)"/><path d="M854.7 603.1a6 6 0 0 1 6-6h60.76a6 6 0 0 1 6 6v17.5a6 6 0 0 1-6 6H860.7a6 6 0 0 1-6-6z" stroke="#000" stroke-opacity="0" stroke-width="3" fill="#fff" fill-opacity="0"/><use xlink:href="#p" transform="matrix(1,0,0,1,859.6921074048303,602.1081353185652) translate(0.925925925925938 13.166666666666664)"/><use xlink:href="#q" transform="matrix(1,0,0,1,859.6921074048303,602.1081353185652) translate(45.07407407407407 13.166666666666664)"/><path d="M185.9 564a6 6 0 0 1 6-6h43.56a6 6 0 0 1 6 6V580a6 6 0 0 1-6 6H191.9a6 6 0 0 1-6-6z" stroke="#000" stroke-opacity="0" stroke-width="3" fill="#fff" fill-opacity="0"/><use xlink:href="#r" transform="matrix(1,0,0,1,190.90251311180006,562.9897182659195) translate(2.666666666666675 11.854166666666664)"/><path d="M412.24 592.02a6 6 0 0 1 6-6h34.08a6 6 0 0 1 6 6v41.9a6 6 0 0 1-6 6h-34.08a6 6 0 0 1-6-6z" stroke="#000" stroke-opacity="0" stroke-width="3" fill="#fff" fill-opacity="0"/><use xlink:href="#s" transform="matrix(1,0,0,1,417.2436405633366,591.0191594589287) translate(4.481481481481488 16.666666666666668)"/><use xlink:href="#t" transform="matrix(1,0,0,1,417.2436405633366,591.0191594589287) translate(-1.833333333333325 32.666666666666664)"/><path d="M359.44 615.02h32.8" stroke="#5e5e5e" stroke-width="2" fill="none"/><path d="M344.18 615.02l14.26-4.63v9.26zM407.5 615.02l-14.26 4.64v-9.27z" stroke="#5e5e5e" stroke-width="2" fill="#5e5e5e"/><path d="M359.44 680h32.8" stroke="#5e5e5e" stroke-width="2" fill="none"/><path d="M344.18 680l14.26-4.63v9.26zM407.5 680l-14.26 4.63v-9.26z" stroke="#5e5e5e" stroke-width="2" fill="#5e5e5e"/><path d="M412.24 654.95a6 6 0 0 1 6-6h42.33a6 6 0 0 1 6 6v50.1a6 6 0 0 1-6 6h-42.33a6 6 0 0 1-6-6z" stroke="#000" stroke-opacity="0" stroke-width="3" fill="#fff" fill-opacity="0"/><use xlink:href="#u" transform="matrix(1,0,0,1,417.2436405633366,653.9481517719292) translate(2.5370370370370487 20.604166666666664)"/><use xlink:href="#v" transform="matrix(1,0,0,1,417.2436405633366,653.9481517719292) translate(6.962962962962969 36.60416666666666)"/><path d="M598.3 602a6 6 0 0 1 6-6h59.55a6 6 0 0 1 6 6v19.7a6 6 0 0 1-6 6H604.3a6 6 0 0 1-6-6z" stroke="#000" stroke-opacity="0" stroke-width="3" fill="#fff" fill-opacity="0"/><use xlink:href="#p" transform="matrix(1,0,0,1,603.3128185103282,600.9881323963716) translate(0.42592592592593803 13.416666666666664)"/><use xlink:href="#q" transform="matrix(1,0,0,1,603.3128185103282,600.9881323963716) translate(44.57407407407407 13.416666666666664)"/><path d="M927.46 454.94a6 6 0 0 1 6-6h25.1a6 6 0 0 1 6 6v9.88a6 6 0 0 1-6 6h-25.1a6 6 0 0 1-6-6z" stroke="#000" stroke-opacity="0" stroke-width="3" fill="#fff" fill-opacity="0"/><use xlink:href="#m" transform="matrix(1,0,0,1,932.4614921067248,453.94352127898395) translate(-1.537037037037031 10.666666666666663)"/><path d="M927.46 873.7a6 6 0 0 1 6-6h148a6 6 0 0 1 6 6v108a6 6 0 0 1-6 6h-148a6 6 0 0 1-6-6z" stroke="#5e5e5e" stroke-width="3" fill="#fff"/><use xlink:href="#w" transform="matrix(1,0,0,1,939.4614921067248,879.7145348571785) translate(45.839506172839506 38.77777777777777)"/><use xlink:href="#x" transform="matrix(1,0,0,1,939.4614921067248,879.7145348571785) translate(20.00617283950617 65.44444444444444)"/><path d="M1179.76 873.7a6 6 0 0 1 6-6h148a6 6 0 0 1 6 6v108a6 6 0 0 1-6 6h-148a6 6 0 0 1-6-6z" stroke="#5e5e5e" stroke-width="3" fill="#fff"/><use xlink:href="#y" transform="matrix(1,0,0,1,1191.7629248589953,879.7145348571785) translate(45.839506172839506 53.77777777777777)"/><path d="M1107.46 927.7h52.3" stroke="#5e5e5e" stroke-width="2" fill="none"/><path d="M1092.2 927.7l14.26-4.62v9.27zM1175.03 927.7l-14.27 4.65v-9.27z" stroke="#5e5e5e" stroke-width="2" fill="#5e5e5e"/><path d="M1159.76 489.96h-52.3" stroke="#5e5e5e" stroke-width="2" fill="none"/><path d="M1175.03 489.96l-14.27 4.64v-9.27zM1092.2 489.96l14.26-4.63v9.27z" stroke="#5e5e5e" stroke-width="2" fill="#5e5e5e"/><path d="M359.44 901.37h548.02" stroke="#5e5e5e" stroke-width="2" fill="none"/><path d="M344.18 901.37l14.26-4.64V906zM922.72 901.37L908.46 906v-9.27z" stroke="#5e5e5e" stroke-width="2" fill="#5e5e5e"/><path d="M927.46 896.6a6 6 0 0 1 6-6h31.15a6 6 0 0 1 6 6v9.35a6 6 0 0 1-6 6h-31.14a6 6 0 0 1-6-6z" stroke="#000" stroke-opacity="0" stroke-width="3" fill="#fff" fill-opacity="0"/><g><use xlink:href="#m" transform="matrix(1,0,0,1,932.4614921067248,895.614379293861) translate(1.462962962962969 10.666666666666663)"/></g><path d="M81.46 363.3a6 6 0 0 1 6-6h228a6 6 0 0 1 6 6v20.44a6 6 0 0 1-6 6h-228a6 6 0 0 1-6-6z" stroke="#000" stroke-opacity="0" stroke-width="3" fill="#fff" fill-opacity="0"/><g><use xlink:href="#z" transform="matrix(1,0,0,1,86.45698153300728,362.2952642242136) translate(55.216049382716065 19.215277777777775)"/><use xlink:href="#A" transform="matrix(1,0,0,1,86.45698153300728,362.2952642242136) translate(120.58641975308642 19.215277777777775)"/></g><defs><path fill="#333" d="M33 0v-248h34V0H33" id="B"/><path fill="#333" d="M101-251c82-7 93 87 43 132L82-64C71-53 59-42 53-27h129V0H18c2-99 128-94 128-182 0-28-16-43-45-43s-46 15-49 41l-32-3c6-41 34-60 81-64" id="C"/><path fill="#333" d="M212-179c-10-28-35-45-73-45-59 0-87 40-87 99 0 60 29 101 89 101 43 0 62-24 78-52l27 14C228-24 195 4 139 4 59 4 22-46 18-125c-6-104 99-153 187-111 19 9 31 26 39 46" id="D"/><g id="a"><use transform="matrix(0.06172839506172839,0,0,0.06172839506172839,0,0)" xlink:href="#B"/><use transform="matrix(0.06172839506172839,0,0,0.06172839506172839,6.172839506172839,0)" xlink:href="#C"/><use transform="matrix(0.06172839506172839,0,0,0.06172839506172839,18.51851851851852,0)" xlink:href="#D"/></g><path fill="#333" d="M100-194c62-1 85 37 85 99 1 63-27 99-86 99S16-35 15-95c0-66 28-99 85-99zM99-20c44 1 53-31 53-75 0-43-8-75-51-75s-53 32-53 75 10 74 51 75" id="E"/><path fill="#333" d="M117-194c89-4 53 116 60 194h-32v-121c0-31-8-49-39-48C34-167 62-67 57 0H25l-1-190h30c1 10-1 24 2 32 11-22 29-35 61-36" id="F"/><path fill="#333" d="M59-47c-2 24 18 29 38 22v24C64 9 27 4 27-40v-127H5v-23h24l9-43h21v43h35v23H59v120" id="G"/><path fill="#333" d="M114-163C36-179 61-72 57 0H25l-1-190h30c1 12-1 29 2 39 6-27 23-49 58-41v29" id="H"/><path fill="#333" d="M24 0v-261h32V0H24" id="I"/><path fill="#333" d="M100-194c63 0 86 42 84 106H49c0 40 14 67 53 68 26 1 43-12 49-29l28 8c-11 28-37 45-77 45C44 4 14-33 15-96c1-61 26-98 85-98zm52 81c6-60-76-77-97-28-3 7-6 17-6 28h103" id="J"/><g id="b"><use transform="matrix(0.06172839506172839,0,0,0.06172839506172839,0,0)" xlink:href="#D"/><use transform="matrix(0.06172839506172839,0,0,0.06172839506172839,15.987654320987653,0)" xlink:href="#E"/><use transform="matrix(0.06172839506172839,0,0,0.06172839506172839,28.333333333333332,0)" xlink:href="#F"/><use transform="matrix(0.06172839506172839,0,0,0.06172839506172839,40.67901234567901,0)" xlink:href="#G"/><use transform="matrix(0.06172839506172839,0,0,0.06172839506172839,46.851851851851855,0)" xlink:href="#H"/><use transform="matrix(0.06172839506172839,0,0,0.06172839506172839,54.19753086419753,0)" xlink:href="#E"/><use transform="matrix(0.06172839506172839,0,0,0.06172839506172839,66.54320987654322,0)" xlink:href="#I"/><use transform="matrix(0.06172839506172839,0,0,0.06172839506172839,71.41975308641976,0)" xlink:href="#I"/><use transform="matrix(0.06172839506172839,0,0,0.06172839506172839,76.2962962962963,0)" xlink:href="#J"/><use transform="matrix(0.06172839506172839,0,0,0.06172839506172839,88.64197530864199,0)" xlink:href="#H"/></g><path fill="#333" d="M30-248c118-7 216 8 213 122C240-48 200 0 122 0H30v-248zM63-27c89 8 146-16 146-99s-60-101-146-95v194" id="K"/><path fill="#333" d="M240 0l2-218c-23 76-54 145-80 218h-23L58-218 59 0H30v-248h44l77 211c21-75 51-140 76-211h43V0h-30" id="L"/><path fill="#333" d="M205 0l-28-72H64L36 0H1l101-248h38L239 0h-34zm-38-99l-47-123c-12 45-31 82-46 123h93" id="M"/><g id="c"><use transform="matrix(0.06172839506172839,0,0,0.06172839506172839,0,0)" xlink:href="#K"/><use transform="matrix(0.06172839506172839,0,0,0.06172839506172839,15.987654320987653,0)" xlink:href="#L"/><use transform="matrix(0.06172839506172839,0,0,0.06172839506172839,34.44444444444444,0)" xlink:href="#M"/></g><path fill="#333" d="M190 0L58-211 59 0H30v-248h39L202-35l-2-213h31V0h-41" id="N"/><path fill="#333" d="M140-251c81 0 123 46 123 126C263-46 219 4 140 4 59 4 17-45 17-125s42-126 123-126zm0 227c63 0 89-41 89-101s-29-99-89-99c-61 0-89 39-89 99S79-25 140-24" id="O"/><path fill="#333" d="M185-189c-5-48-123-54-124 2 14 75 158 14 163 119 3 78-121 87-175 55-17-10-28-26-33-46l33-7c5 56 141 63 141-1 0-78-155-14-162-118-5-82 145-84 179-34 5 7 8 16 11 25" id="P"/><g id="d"><use transform="matrix(0.06172839506172839,0,0,0.06172839506172839,0,0)" xlink:href="#N"/><use transform="matrix(0.06172839506172839,0,0,0.06172839506172839,15.987654320987653,0)" xlink:href="#B"/><use transform="matrix(0.06172839506172839,0,0,0.06172839506172839,22.160493827160494,0)" xlink:href="#O"/><use transform="matrix(0.06172839506172839,0,0,0.06172839506172839,39.44444444444444,0)" xlink:href="#P"/><use transform="matrix(0.06172839506172839,0,0,0.06172839506172839,54.25925925925925,0)" xlink:href="#C"/></g><path fill="#333" d="M233-177c-1 41-23 64-60 70L243 0h-38l-65-103H63V0H30v-248c88 3 205-21 203 71zM63-129c60-2 137 13 137-47 0-61-80-42-137-45v92" id="Q"/><g id="e"><use transform="matrix(0.06172839506172839,0,0,0.06172839506172839,0,0)" xlink:href="#P"/><use transform="matrix(0.06172839506172839,0,0,0.06172839506172839,14.814814814814813,0)" xlink:href="#K"/><use transform="matrix(0.06172839506172839,0,0,0.06172839506172839,30.80246913580247,0)" xlink:href="#Q"/><use transform="matrix(0.06172839506172839,0,0,0.06172839506172839,46.79012345679012,0)" xlink:href="#M"/><use transform="matrix(0.06172839506172839,0,0,0.06172839506172839,61.60493827160494,0)" xlink:href="#L"/></g><g id="f"><use transform="matrix(0.06172839506172839,0,0,0.06172839506172839,0,0)" xlink:href="#P"/><use transform="matrix(0.06172839506172839,0,0,0.06172839506172839,14.814814814814813,0)" xlink:href="#K"/><use transform="matrix(0.06172839506172839,0,0,0.06172839506172839,30.80246913580247,0)" xlink:href="#Q"/><use transform="matrix(0.06172839506172839,0,0,0.06172839506172839,46.79012345679012,0)" xlink:href="#M"/><use transform="matrix(0.06172839506172839,0,0,0.06172839506172839,61.60493827160494,0)" xlink:href="#L"/></g><path fill="#333" d="M84 4C-5 8 30-112 23-190h32v120c0 31 7 50 39 49 72-2 45-101 50-169h31l1 190h-30c-1-10 1-25-2-33-11 22-28 36-60 37" id="R"/><path fill="#333" d="M141-36C126-15 110 5 73 4 37 3 15-17 15-53c-1-64 63-63 125-63 3-35-9-54-41-54-24 1-41 7-42 31l-33-3c5-37 33-52 76-52 45 0 72 20 72 64v82c-1 20 7 32 28 27v20c-31 9-61-2-59-35zM48-53c0 20 12 33 32 33 41-3 63-29 60-74-43 2-92-5-92 41" id="S"/><g id="g"><use transform="matrix(0.0493827160493827,0,0,0.0493827160493827,0,0)" xlink:href="#K"/><use transform="matrix(0.0493827160493827,0,0,0.0493827160493827,12.79012345679012,0)" xlink:href="#R"/><use transform="matrix(0.0493827160493827,0,0,0.0493827160493827,22.666666666666657,0)" xlink:href="#S"/><use transform="matrix(0.0493827160493827,0,0,0.0493827160493827,32.543209876543195,0)" xlink:href="#I"/></g><path fill="#333" d="M96-169c-40 0-48 33-48 73s9 75 48 75c24 0 41-14 43-38l32 2c-6 37-31 61-74 61-59 0-76-41-82-99-10-93 101-131 147-64 4 7 5 14 7 22l-32 3c-4-21-16-35-41-35" id="T"/><path fill="#333" d="M143 0L79-87 56-68V0H24v-261h32v163l83-92h37l-77 82L181 0h-38" id="U"/><g id="h"><use transform="matrix(0.0493827160493827,0,0,0.0493827160493827,0,0)" xlink:href="#D"/><use transform="matrix(0.0493827160493827,0,0,0.0493827160493827,12.79012345679012,0)" xlink:href="#I"/><use transform="matrix(0.0493827160493827,0,0,0.0493827160493827,16.691358024691354,0)" xlink:href="#E"/><use transform="matrix(0.0493827160493827,0,0,0.0493827160493827,26.56790123456789,0)" xlink:href="#T"/><use transform="matrix(0.0493827160493827,0,0,0.0493827160493827,35.45679012345678,0)" xlink:href="#U"/></g><path fill="#333" d="M63-220v92h138v28H63V0H30v-248h175v28H63" id="V"/><g id="i"><use transform="matrix(0.0493827160493827,0,0,0.0493827160493827,0,0)" xlink:href="#V"/><use transform="matrix(0.0493827160493827,0,0,0.0493827160493827,10.814814814814811,0)" xlink:href="#B"/><use transform="matrix(0.0493827160493827,0,0,0.0493827160493827,15.753086419753082,0)" xlink:href="#V"/><use transform="matrix(0.0493827160493827,0,0,0.0493827160493827,26.56790123456789,0)" xlink:href="#O"/></g><path fill="#333" d="M137 0h-34L2-248h35l83 218 83-218h36" id="W"/><path fill="#333" d="M64 0c3-98 48-159 88-221H18v-27h164v26C143-157 98-101 97 0H64" id="X"/><path fill="#333" d="M110-160c48 1 74 30 74 79 0 53-28 85-80 85-65 0-83-55-86-122-5-90 50-162 133-122 14 7 22 21 27 39l-31 6c-5-40-67-38-82-6-9 19-15 44-15 74 11-20 30-34 60-33zm-7 138c34 0 49-23 49-58s-16-56-50-56c-29 0-50 16-49 49 1 36 15 65 50 65" id="Y"/><path fill="#333" d="M101-251c68 0 85 55 85 127S166 4 100 4C33 4 14-52 14-124c0-73 17-127 87-127zm-1 229c47 0 54-49 54-102s-4-102-53-102c-51 0-55 48-55 102 0 53 5 102 54 102" id="Z"/><g id="j"><use transform="matrix(0.06172839506172839,0,0,0.06172839506172839,0,0)" xlink:href="#O"/><use transform="matrix(0.06172839506172839,0,0,0.06172839506172839,17.28395061728395,0)" xlink:href="#W"/><use transform="matrix(0.06172839506172839,0,0,0.06172839506172839,32.09876543209876,0)" xlink:href="#X"/><use transform="matrix(0.06172839506172839,0,0,0.06172839506172839,44.444444444444436,0)" xlink:href="#Y"/><use transform="matrix(0.06172839506172839,0,0,0.06172839506172839,56.79012345679011,0)" xlink:href="#X"/><use transform="matrix(0.06172839506172839,0,0,0.06172839506172839,69.1358024691358,0)" xlink:href="#Z"/></g><path fill="#333" d="M210-169c-67 3-38 105-44 169h-31v-121c0-29-5-50-35-48C34-165 62-65 56 0H25l-1-190h30c1 10-1 24 2 32 10-44 99-50 107 0 11-21 27-35 58-36 85-2 47 119 55 194h-31v-121c0-29-5-49-35-48" id="aa"/><g id="k"><use transform="matrix(0.06172839506172839,0,0,0.06172839506172839,0,0)" xlink:href="#D"/><use transform="matrix(0.06172839506172839,0,0,0.06172839506172839,15.987654320987653,0)" xlink:href="#S"/><use transform="matrix(0.06172839506172839,0,0,0.06172839506172839,28.333333333333332,0)" xlink:href="#aa"/><use transform="matrix(0.06172839506172839,0,0,0.06172839506172839,46.79012345679012,0)" xlink:href="#J"/><use transform="matrix(0.06172839506172839,0,0,0.06172839506172839,59.1358024691358,0)" xlink:href="#H"/><use transform="matrix(0.06172839506172839,0,0,0.06172839506172839,66.48148148148148,0)" xlink:href="#S"/></g><g id="l"><use transform="matrix(0.06172839506172839,0,0,0.06172839506172839,0,0)" xlink:href="#D"/><use transform="matrix(0.06172839506172839,0,0,0.06172839506172839,15.987654320987653,0)" xlink:href="#S"/><use transform="matrix(0.06172839506172839,0,0,0.06172839506172839,28.333333333333332,0)" xlink:href="#aa"/><use transform="matrix(0.06172839506172839,0,0,0.06172839506172839,46.79012345679012,0)" xlink:href="#J"/><use transform="matrix(0.06172839506172839,0,0,0.06172839506172839,59.1358024691358,0)" xlink:href="#H"/><use transform="matrix(0.06172839506172839,0,0,0.06172839506172839,66.48148148148148,0)" xlink:href="#S"/></g><path fill="#333" d="M135-143c-3-34-86-38-87 0 15 53 115 12 119 90S17 21 10-45l28-5c4 36 97 45 98 0-10-56-113-15-118-90-4-57 82-63 122-42 12 7 21 19 24 35" id="ab"/><path fill="#333" d="M108 0H70L1-190h34L89-25l56-165h34" id="ac"/><g id="m"><use transform="matrix(0.03703703703703702,0,0,0.03703703703703702,0,0)" xlink:href="#ab"/><use transform="matrix(0.03703703703703702,0,0,0.03703703703703702,6.666666666666663,0)" xlink:href="#I"/><use transform="matrix(0.03703703703703702,0,0,0.03703703703703702,9.592592592592588,0)" xlink:href="#S"/><use transform="matrix(0.03703703703703702,0,0,0.03703703703703702,16.999999999999993,0)" xlink:href="#ac"/><use transform="matrix(0.03703703703703702,0,0,0.03703703703703702,23.666666666666657,0)" xlink:href="#J"/></g><g id="n"><use transform="matrix(0.06172839506172839,0,0,0.06172839506172839,0,0)" xlink:href="#M"/><use transform="matrix(0.06172839506172839,0,0,0.06172839506172839,14.382716049382715,0)" xlink:href="#ac"/><use transform="matrix(0.06172839506172839,0,0,0.06172839506172839,25.493827160493826,0)" xlink:href="#S"/><use transform="matrix(0.06172839506172839,0,0,0.06172839506172839,37.839506172839506,0)" xlink:href="#I"/><use transform="matrix(0.06172839506172839,0,0,0.06172839506172839,42.71604938271605,0)" xlink:href="#E"/><use transform="matrix(0.06172839506172839,0,0,0.06172839506172839,55.06172839506173,0)" xlink:href="#F"/></g><g id="o"><use transform="matrix(0.06172839506172839,0,0,0.06172839506172839,0,0)" xlink:href="#L"/><use transform="matrix(0.06172839506172839,0,0,0.06172839506172839,18.456790123456788,0)" xlink:href="#L"/></g><g id="p"><use transform="matrix(0.03703703703703702,0,0,0.03703703703703702,0,0)" xlink:href="#M"/><use transform="matrix(0.03703703703703702,0,0,0.03703703703703702,8.629629629629626,0)" xlink:href="#ac"/><use transform="matrix(0.03703703703703702,0,0,0.03703703703703702,15.29629629629629,0)" xlink:href="#S"/><use transform="matrix(0.03703703703703702,0,0,0.03703703703703702,22.703703703703695,0)" xlink:href="#I"/><use transform="matrix(0.03703703703703702,0,0,0.03703703703703702,25.62962962962962,0)" xlink:href="#E"/><use transform="matrix(0.03703703703703702,0,0,0.03703703703703702,33.037037037037024,0)" xlink:href="#F"/></g><path fill="#333" d="M127-220V0H93v-220H8v-28h204v28h-85" id="ad"/><g id="q"><use transform="matrix(0.03703703703703702,0,0,0.03703703703703702,0,0)" xlink:href="#P"/><use transform="matrix(0.03703703703703702,0,0,0.03703703703703702,8.888888888888886,0)" xlink:href="#ad"/></g><g id="r"><use transform="matrix(0.03703703703703702,0,0,0.03703703703703702,0,0)" xlink:href="#L"/><use transform="matrix(0.03703703703703702,0,0,0.03703703703703702,11.074074074074069,0)" xlink:href="#S"/><use transform="matrix(0.03703703703703702,0,0,0.03703703703703702,18.481481481481474,0)" xlink:href="#ab"/><use transform="matrix(0.03703703703703702,0,0,0.03703703703703702,25.148148148148138,0)" xlink:href="#G"/><use transform="matrix(0.03703703703703702,0,0,0.03703703703703702,28.85185185185184,0)" xlink:href="#J"/><use transform="matrix(0.03703703703703702,0,0,0.03703703703703702,36.259259259259245,0)" xlink:href="#H"/></g><path fill="#333" d="M206 0h-36l-40-164L89 0H53L-1-190h32L70-26l43-164h34l41 164 42-164h31" id="ae"/><path fill="#333" d="M24-231v-30h32v30H24zM24 0v-190h32V0H24" id="af"/><g id="s"><use transform="matrix(0.03703703703703702,0,0,0.03703703703703702,0,0)" xlink:href="#ae"/><use transform="matrix(0.03703703703703702,0,0,0.03703703703703702,9.592592592592588,0)" xlink:href="#H"/><use transform="matrix(0.03703703703703702,0,0,0.03703703703703702,13.999999999999991,0)" xlink:href="#af"/><use transform="matrix(0.03703703703703702,0,0,0.03703703703703702,16.925925925925917,0)" xlink:href="#G"/><use transform="matrix(0.03703703703703702,0,0,0.03703703703703702,20.62962962962962,0)" xlink:href="#J"/></g><g id="t"><use transform="matrix(0.03703703703703702,0,0,0.03703703703703702,0,0)" xlink:href="#aa"/><use transform="matrix(0.03703703703703702,0,0,0.03703703703703702,11.074074074074069,0)" xlink:href="#S"/><use transform="matrix(0.03703703703703702,0,0,0.03703703703703702,18.481481481481474,0)" xlink:href="#ab"/><use transform="matrix(0.03703703703703702,0,0,0.03703703703703702,25.148148148148138,0)" xlink:href="#G"/><use transform="matrix(0.03703703703703702,0,0,0.03703703703703702,28.85185185185184,0)" xlink:href="#J"/><use transform="matrix(0.03703703703703702,0,0,0.03703703703703702,36.259259259259245,0)" xlink:href="#H"/></g><g id="u"><use transform="matrix(0.03703703703703702,0,0,0.03703703703703702,0,0)" xlink:href="#T"/><use transform="matrix(0.03703703703703702,0,0,0.03703703703703702,6.666666666666663,0)" xlink:href="#E"/><use transform="matrix(0.03703703703703702,0,0,0.03703703703703702,14.074074074074067,0)" xlink:href="#F"/><use transform="matrix(0.03703703703703702,0,0,0.03703703703703702,21.481481481481474,0)" xlink:href="#G"/><use transform="matrix(0.03703703703703702,0,0,0.03703703703703702,25.185185185185173,0)" xlink:href="#H"/><use transform="matrix(0.03703703703703702,0,0,0.03703703703703702,29.592592592592574,0)" xlink:href="#E"/><use transform="matrix(0.03703703703703702,0,0,0.03703703703703702,36.99999999999998,0)" xlink:href="#I"/></g><g id="v"><use transform="matrix(0.03703703703703702,0,0,0.03703703703703702,0,0)" xlink:href="#ab"/><use transform="matrix(0.03703703703703702,0,0,0.03703703703703702,6.666666666666663,0)" xlink:href="#I"/><use transform="matrix(0.03703703703703702,0,0,0.03703703703703702,9.592592592592588,0)" xlink:href="#S"/><use transform="matrix(0.03703703703703702,0,0,0.03703703703703702,16.999999999999993,0)" xlink:href="#ac"/><use transform="matrix(0.03703703703703702,0,0,0.03703703703703702,23.666666666666657,0)" xlink:href="#J"/></g><path fill="#333" d="M30 0v-248h33v221h125V0H30" id="ag"/><g id="w"><use transform="matrix(0.061728395061728385,0,0,0.061728395061728385,0,0)" xlink:href="#ag"/><use transform="matrix(0.061728395061728385,0,0,0.061728395061728385,12.345679012345677,0)" xlink:href="#D"/><use transform="matrix(0.061728395061728385,0,0,0.061728395061728385,28.33333333333333,0)" xlink:href="#K"/></g><g id="x"><use transform="matrix(0.061728395061728385,0,0,0.061728395061728385,0,0)" xlink:href="#D"/><use transform="matrix(0.061728395061728385,0,0,0.061728395061728385,15.987654320987652,0)" xlink:href="#E"/><use transform="matrix(0.061728395061728385,0,0,0.061728395061728385,28.33333333333333,0)" xlink:href="#F"/><use transform="matrix(0.061728395061728385,0,0,0.061728395061728385,40.679012345679006,0)" xlink:href="#G"/><use transform="matrix(0.061728395061728385,0,0,0.061728395061728385,46.85185185185185,0)" xlink:href="#H"/><use transform="matrix(0.061728395061728385,0,0,0.061728395061728385,54.197530864197525,0)" xlink:href="#E"/><use transform="matrix(0.061728395061728385,0,0,0.061728395061728385,66.5432098765432,0)" xlink:href="#I"/><use transform="matrix(0.061728395061728385,0,0,0.061728395061728385,71.41975308641975,0)" xlink:href="#I"/><use transform="matrix(0.061728395061728385,0,0,0.061728395061728385,76.29629629629629,0)" xlink:href="#J"/><use transform="matrix(0.061728395061728385,0,0,0.061728395061728385,88.64197530864197,0)" xlink:href="#H"/></g><g id="y"><use transform="matrix(0.061728395061728385,0,0,0.061728395061728385,0,0)" xlink:href="#ag"/><use transform="matrix(0.061728395061728385,0,0,0.061728395061728385,12.345679012345677,0)" xlink:href="#D"/><use transform="matrix(0.061728395061728385,0,0,0.061728395061728385,28.33333333333333,0)" xlink:href="#K"/></g><path fill="#333" d="M30-248c87 1 191-15 191 75 0 78-77 80-158 76V0H30v-248zm33 125c57 0 124 11 124-50 0-59-68-47-124-48v98" id="ah"/><path fill="#333" d="M143 4C61 4 22-44 18-125c-5-107 100-154 193-111 17 8 29 25 37 43l-32 9c-13-25-37-40-76-40-61 0-88 39-88 99 0 61 29 100 91 101 35 0 62-11 79-27v-45h-74v-28h105v86C228-13 192 4 143 4" id="ai"/><g id="z"><use transform="matrix(0.061728395061728385,0,0,0.061728395061728385,0,0)" xlink:href="#V"/><use transform="matrix(0.061728395061728385,0,0,0.061728395061728385,13.518518518518515,0)" xlink:href="#ah"/><use transform="matrix(0.061728395061728385,0,0,0.061728395061728385,28.33333333333333,0)" xlink:href="#ai"/><use transform="matrix(0.061728395061728385,0,0,0.061728395061728385,45.61728395061728,0)" xlink:href="#M"/></g><path fill="#333" d="M101-234c-31-9-42 10-38 44h38v23H63V0H32v-167H5v-23h27c-7-52 17-82 69-68v24" id="aj"/><path fill="#333" d="M115-194c53 0 69 39 70 98 0 66-23 100-70 100C84 3 66-7 56-30L54 0H23l1-261h32v101c10-23 28-34 59-34zm-8 174c40 0 45-34 45-75 0-40-5-75-45-74-42 0-51 32-51 76 0 43 10 73 51 73" id="ak"/><g id="A"><use transform="matrix(0.061728395061728385,0,0,0.061728395061728385,0,0)" xlink:href="#aj"/><use transform="matrix(0.061728395061728385,0,0,0.061728395061728385,6.1728395061728385,0)" xlink:href="#S"/><use transform="matrix(0.061728395061728385,0,0,0.061728395061728385,18.518518518518515,0)" xlink:href="#ak"/><use transform="matrix(0.061728395061728385,0,0,0.061728395061728385,30.864197530864192,0)" xlink:href="#H"/><use transform="matrix(0.061728395061728385,0,0,0.061728395061728385,38.20987654320987,0)" xlink:href="#af"/><use transform="matrix(0.061728395061728385,0,0,0.061728395061728385,43.08641975308642,0)" xlink:href="#T"/></g></defs></g></svg>